<mxfile host="app.diagrams.net" agent="Mozilla/5.0 (Windows NT 10.0; Win64; x64) AppleWebKit/537.36 (KHTML, like Gecko) Chrome/131.0.0.0 Safari/537.36" version="25.0.3">
  <diagram id="C5RBs43oDa-KdzZeNtuy" name="Page-1">
    <mxGraphModel dx="1050" dy="1726" grid="1" gridSize="10" guides="1" tooltips="1" connect="1" arrows="1" fold="1" page="1" pageScale="1" pageWidth="827" pageHeight="1169" math="0" shadow="0">
      <root>
        <mxCell id="WIyWlLk6GJQsqaUBKTNV-0" />
        <mxCell id="WIyWlLk6GJQsqaUBKTNV-1" parent="WIyWlLk6GJQsqaUBKTNV-0" />
        <mxCell id="ZC-sPonKd9YEnUgVo_Oz-2" value="" style="edgeStyle=orthogonalEdgeStyle;rounded=0;orthogonalLoop=1;jettySize=auto;html=1;" edge="1" parent="WIyWlLk6GJQsqaUBKTNV-1" source="ZC-sPonKd9YEnUgVo_Oz-0" target="ZC-sPonKd9YEnUgVo_Oz-1">
          <mxGeometry relative="1" as="geometry" />
        </mxCell>
        <mxCell id="ZC-sPonKd9YEnUgVo_Oz-0" value="Start" style="ellipse;whiteSpace=wrap;html=1;" vertex="1" parent="WIyWlLk6GJQsqaUBKTNV-1">
          <mxGeometry x="354" y="-1169" width="120" height="80" as="geometry" />
        </mxCell>
        <mxCell id="ZC-sPonKd9YEnUgVo_Oz-4" value="" style="edgeStyle=orthogonalEdgeStyle;rounded=0;orthogonalLoop=1;jettySize=auto;html=1;" edge="1" parent="WIyWlLk6GJQsqaUBKTNV-1" source="ZC-sPonKd9YEnUgVo_Oz-1" target="ZC-sPonKd9YEnUgVo_Oz-3">
          <mxGeometry relative="1" as="geometry" />
        </mxCell>
        <mxCell id="ZC-sPonKd9YEnUgVo_Oz-1" value="num1,num2,Sum" style="rounded=0;whiteSpace=wrap;html=1;" vertex="1" parent="WIyWlLk6GJQsqaUBKTNV-1">
          <mxGeometry x="354" y="-1030" width="120" height="60" as="geometry" />
        </mxCell>
        <mxCell id="ZC-sPonKd9YEnUgVo_Oz-8" value="" style="edgeStyle=orthogonalEdgeStyle;rounded=0;orthogonalLoop=1;jettySize=auto;html=1;" edge="1" parent="WIyWlLk6GJQsqaUBKTNV-1" source="ZC-sPonKd9YEnUgVo_Oz-3" target="ZC-sPonKd9YEnUgVo_Oz-7">
          <mxGeometry relative="1" as="geometry" />
        </mxCell>
        <mxCell id="ZC-sPonKd9YEnUgVo_Oz-3" value="num1,num2" style="shape=parallelogram;perimeter=parallelogramPerimeter;whiteSpace=wrap;html=1;fixedSize=1;" vertex="1" parent="WIyWlLk6GJQsqaUBKTNV-1">
          <mxGeometry x="349" y="-890" width="130" height="60" as="geometry" />
        </mxCell>
        <mxCell id="ZC-sPonKd9YEnUgVo_Oz-10" value="" style="edgeStyle=orthogonalEdgeStyle;rounded=0;orthogonalLoop=1;jettySize=auto;html=1;" edge="1" parent="WIyWlLk6GJQsqaUBKTNV-1" source="ZC-sPonKd9YEnUgVo_Oz-7" target="ZC-sPonKd9YEnUgVo_Oz-9">
          <mxGeometry relative="1" as="geometry" />
        </mxCell>
        <mxCell id="ZC-sPonKd9YEnUgVo_Oz-7" value="Sum = num1 + num2" style="rounded=0;whiteSpace=wrap;html=1;" vertex="1" parent="WIyWlLk6GJQsqaUBKTNV-1">
          <mxGeometry x="354" y="-760" width="120" height="60" as="geometry" />
        </mxCell>
        <mxCell id="ZC-sPonKd9YEnUgVo_Oz-12" value="" style="edgeStyle=orthogonalEdgeStyle;rounded=0;orthogonalLoop=1;jettySize=auto;html=1;" edge="1" parent="WIyWlLk6GJQsqaUBKTNV-1" source="ZC-sPonKd9YEnUgVo_Oz-9" target="ZC-sPonKd9YEnUgVo_Oz-11">
          <mxGeometry relative="1" as="geometry" />
        </mxCell>
        <mxCell id="ZC-sPonKd9YEnUgVo_Oz-9" value="Sum" style="shape=parallelogram;perimeter=parallelogramPerimeter;whiteSpace=wrap;html=1;fixedSize=1;" vertex="1" parent="WIyWlLk6GJQsqaUBKTNV-1">
          <mxGeometry x="354" y="-644" width="120" height="60" as="geometry" />
        </mxCell>
        <mxCell id="ZC-sPonKd9YEnUgVo_Oz-11" value="End" style="ellipse;whiteSpace=wrap;html=1;" vertex="1" parent="WIyWlLk6GJQsqaUBKTNV-1">
          <mxGeometry x="354" y="-510" width="120" height="80" as="geometry" />
        </mxCell>
      </root>
    </mxGraphModel>
  </diagram>
</mxfile>
